# xmcd
#
# Track frame offsets:
#	150
#	14884
#	32858
#	55634
#	72779
#	95608
#	110916
#	127527
#	141483
#	158468
#	177263
#
# Disc length: 2544 seconds
#
# Revision: 1
# Processed by: cddbd v1.5.2PL0 Copyright (c) Steve Scherf et al.
# Submitted via: audiograbber 1.83.01
#
DISCID=9409ee0b
DTITLE=Kenny Wayne Shepherd - The place you're in
DYEAR=2005
DGENRE=
TTITLE0=Alive
TTITLE1=Be mine
TTITLE2=Spank
TTITLE3=Let go
TTITLE4=Ain't selling out
TTITLE5=Believe
TTITLE6=The place you're in
TTITLE7=Hey, what do you say
TTITLE8=Get it together
TTITLE9=Burdens
TTITLE10=A little bit more (instrumental)
EXTD=
EXTT0=
EXTT1=
EXTT2=
EXTT3=
EXTT4=
EXTT5=
EXTT6=
EXTT7=
EXTT8=
EXTT9=
EXTT10=
PLAYORDER=
